<?xml version="1.0" encoding="utf-8"?>
<!-- Generator: Adobe Illustrator 17.1.0, SVG Export Plug-In . SVG Version: 6.00 Build 0)  -->
<!DOCTYPE svg PUBLIC "-//W3C//DTD SVG 1.1//EN" "http://www.w3.org/Graphics/SVG/1.1/DTD/svg11.dtd">
<svg version="1.1" id="Ebene_1" xmlns="http://www.w3.org/2000/svg" xmlns:xlink="http://www.w3.org/1999/xlink" x="0px" y="0px"
	 viewBox="0 0 192 25" enable-background="new 0 0 192 25" xml:space="preserve">
<g>
	<g>
		<path fill="#FFFFFF" d="M13.1,13.8C12,13,9.2,11,9.2,7.2c0-3.9,2.8-6.6,6.6-6.6c3.9,0,6.6,2.8,6.6,6.6c0,3.9-2.8,5.8-3.9,6.6
			c1.4-1.7,3-3.3,3-6.6c0-3.3-2.5-5.5-5.8-5.5c-3.3,0-5.8,2.2-5.8,5.5C10,10.5,11.7,12.2,13.1,13.8z"/>
		<path fill="#FFFFFF" d="M12.8,14.9c0.8,0.6,3.8,0.6,6,0C17.5,16.3,12.5,16.6,12.8,14.9z"/>
		<path fill="#FFFFFF" d="M13.1,16.3c0.8,0.6,3.3,0.6,5.5,0C17.2,17.7,12.7,18,13.1,16.3z"/>
		<path fill="#FFFFFF" d="M13.3,17.7c0.8,0.6,2.8,0.6,5,0C16.9,19.1,13,19.3,13.3,17.7z"/>
		<path fill="#FFFFFF" d="M15.5,13.8c1.4-0.3,1.4-1.9,0.5-3.6c-0.8-1.6-1.8-2.5-1.6-3.4c0.1-0.9,3.5-0.8,3.2,0.2
			c1.5-1.4-3.6-1.8-3.8-0.2c-0.1,1.1,1,2.1,1.8,3.6C16.5,11.8,16.7,13.2,15.5,13.8z"/>
		<path fill="#FFFFFF" d="M18.9,23.2c11.8,3.3,15.9-0.8,10.2-5.2c-0.2,0.2-0.5,0.5-0.7,0.6c3.3,3.3,0.7,5-6.5,3.6
			C20.9,22.6,20,22.9,18.9,23.2z"/>
		<path fill="#FFFFFF" d="M27.5,16.9c-1.5-0.9-3.4-1.8-5.7-2.7c2.2,1.1,3.9,2.2,5.1,3.1C27.1,17.2,27.3,17.1,27.5,16.9z"/>
		<path fill="#FFFFFF" d="M7.8,10.2c-9.2-2.1-6.8,6.7,7.1,11.7c0.7-0.2,1.8-0.4,2.9-0.7c-0.7-0.2-1.4-0.4-2.1-0.7
			C5.1,17.1-1.2,9.4,7.8,10.2z"/>
		<path fill="#FFFFFF" d="M5.1,16.9c-0.2-0.1-0.4-0.3-0.6-0.5c-9.1,4.2-4.3,11.4,12.2,7c15.5-4.1,17.8-11.5,5.6-10.3
			c10.5,0.1,7.8,5.5-5.9,8.8C4,25-2.4,21.3,5.1,16.9z"/>
		<path fill="#FFFFFF" d="M7.2,15.9c1-0.4,2.1-0.9,3.3-1.3c-1.4,0.3-2.6,0.6-3.7,1C6.9,15.7,7.1,15.8,7.2,15.9z"/>
	</g>
	<g>
		<path fill="#FFFFFF" d="M34.4,24.4V1h4.4v23.4H34.4z"/>
		<path fill="#FFFFFF" d="M52.5,24.4V11c0-0.2-0.1-0.3-0.4-0.3h-5.9c-0.2,0-0.3,0.1-0.3,0.3v13.5h-4.4V10.7c0-0.7,0.4-1.2,1.2-1.7
			c0.8-0.4,1.6-0.6,2.5-0.6h8.1c0.4,0,0.9,0.1,1.3,0.2C55,8.6,55.4,8.8,55.8,9c0.3,0.2,0.6,0.4,0.8,0.7c0.2,0.3,0.3,0.6,0.3,1v13.8
			H52.5z"/>
		<path fill="#FFFFFF" d="M70.6,24.4V11c0-0.2-0.1-0.3-0.4-0.3h-5.9c-0.2,0-0.3,0.1-0.3,0.3v13.5h-4.4V10.7c0-0.7,0.4-1.2,1.2-1.7
			c0.8-0.4,1.6-0.6,2.5-0.6h8.1c0.4,0,0.9,0.1,1.3,0.2c0.4,0.1,0.8,0.3,1.2,0.5c0.3,0.2,0.6,0.4,0.8,0.7c0.2,0.3,0.3,0.6,0.3,1v13.8
			H70.6z"/>
		<path fill="#FFFFFF" d="M92.7,23.1c-0.2,0.3-0.5,0.5-0.8,0.7c-0.3,0.2-0.7,0.4-1.2,0.5c-0.4,0.1-0.9,0.2-1.3,0.2h-8.1
			c-0.9,0-1.7-0.2-2.5-0.6c-0.8-0.4-1.2-1-1.2-1.7V10.7c0-0.7,0.4-1.2,1.2-1.7c0.8-0.4,1.6-0.6,2.5-0.6h8.1c0.4,0,0.9,0.1,1.3,0.2
			c0.4,0.1,0.8,0.3,1.2,0.5c0.3,0.2,0.6,0.4,0.8,0.7c0.2,0.3,0.3,0.6,0.3,1v11.4C93,22.5,92.9,22.8,92.7,23.1z M88.6,11
			c0-0.2-0.1-0.3-0.4-0.3h-5.9c-0.2,0-0.3,0.1-0.3,0.3v10.8c0,0.2,0.1,0.3,0.3,0.3h5.9c0.2,0,0.4-0.1,0.4-0.3V11z"/>
		<path fill="#FFFFFF" d="M99.3,24.4c-0.9,0-1.7-0.2-2.5-0.6c-0.8-0.4-1.2-1-1.2-1.7V3.4c0-0.7,0.4-1.2,1.2-1.7
			C97.6,1.2,98.4,1,99.3,1H114v2.4h-13.6c-0.2,0-0.3,0.1-0.3,0.3v18.2c0,0.2,0.1,0.3,0.3,0.3h9.2V11.9c0-0.6-0.4-0.9-1.1-0.9h-3.7
			V8.6h9.2v15.8H99.3z"/>
		<path fill="#FFFFFF" d="M119.9,24.4c-0.9,0-1.7-0.2-2.5-0.6c-0.8-0.4-1.2-1-1.2-1.7v-7c0-0.7,0.4-1.2,1.2-1.7
			c0.8-0.4,1.6-0.6,2.5-0.6h7.3V11c0-0.2-0.1-0.3-0.4-0.3h-9.9V8.4h11c0.4,0,0.9,0.1,1.3,0.2c0.4,0.1,0.8,0.3,1.2,0.5
			c0.3,0.2,0.6,0.4,0.8,0.7c0.2,0.3,0.3,0.6,0.3,1v13.8H119.9z M127.2,15.1h-6.3c-0.2,0-0.3,0.1-0.3,0.3v6.4c0,0.2,0.1,0.3,0.3,0.3
			h6.3V15.1z"/>
		<path fill="#FFFFFF" d="M151.8,24.4V11c0-0.2-0.1-0.3-0.4-0.3h-3.7c-0.2,0-0.3,0.1-0.3,0.3v13.5H143V11c0-0.2-0.1-0.3-0.4-0.3H139
			c-0.2,0-0.3,0.1-0.3,0.3v13.5h-4.4V10.7c0-0.7,0.4-1.2,1.2-1.7c0.8-0.4,1.6-0.6,2.5-0.6h14.7c0.5,0,0.9,0,1.3,0.1
			c0.4,0.1,0.8,0.3,1.2,0.5c0.3,0.2,0.6,0.5,0.8,0.7c0.2,0.3,0.3,0.6,0.3,1v13.8H151.8z"/>
		<path fill="#FFFFFF" d="M173.9,16.2c-0.2,0.3-0.5,0.5-0.8,0.7c-0.3,0.2-0.7,0.4-1.2,0.5c-0.4,0.1-0.9,0.2-1.3,0.2h-7.3v4.2
			c0,0.2,0.1,0.3,0.3,0.3h9.9v2.4h-11c-0.9,0-1.7-0.2-2.5-0.6c-0.8-0.4-1.2-1-1.2-1.7V10.7c0-0.7,0.4-1.2,1.2-1.7
			c0.8-0.4,1.6-0.6,2.5-0.6h8.1c0.4,0,0.9,0.1,1.3,0.2c0.4,0.1,0.8,0.3,1.2,0.5c0.3,0.2,0.6,0.4,0.8,0.7c0.2,0.3,0.3,0.6,0.3,1v4.5
			C174.3,15.6,174.1,15.9,173.9,16.2z M169.9,11c0-0.2-0.1-0.3-0.4-0.3h-5.9c-0.2,0-0.3,0.1-0.3,0.3v4.2h6.2c0.2,0,0.4-0.1,0.4-0.3
			V11z"/>
		<path fill="#FFFFFF" d="M191.7,23.1c-0.2,0.3-0.5,0.5-0.8,0.7c-0.3,0.2-0.7,0.4-1.2,0.5c-0.4,0.1-0.9,0.2-1.3,0.2h-11.7v-2.4h10.6
			c0.2,0,0.4-0.1,0.4-0.3v-4c0-0.2-0.1-0.3-0.4-0.3h-7c-0.9,0-1.7-0.2-2.5-0.6c-0.8-0.4-1.2-1-1.2-1.8v-4.5c0-0.7,0.4-1.2,1.2-1.7
			c0.8-0.4,1.6-0.6,2.5-0.6H192v2.3h-10.7c-0.2,0-0.3,0.1-0.3,0.3v3.9c0,0.2,0.1,0.3,0.3,0.3h7c0.4,0,0.9,0.1,1.3,0.2
			c0.4,0.1,0.8,0.3,1.2,0.5c0.3,0.2,0.6,0.5,0.8,0.7c0.2,0.3,0.3,0.6,0.3,1v4.5C192,22.5,191.9,22.8,191.7,23.1z"/>
	</g>
</g>
</svg>
